<?xml version="1.0" encoding="UTF-8" standalone="no"?><!DOCTYPE svg PUBLIC "-//W3C//DTD SVG 1.1//EN" "http://www.w3.org/Graphics/SVG/1.1/DTD/svg11.dtd"><svg width="100%" height="100%" viewBox="0 0 230 242" version="1.1" xmlns="http://www.w3.org/2000/svg" xmlns:xlink="http://www.w3.org/1999/xlink" xml:space="preserve" xmlns:serif="http://www.serif.com/" style="fill-rule:evenodd;clip-rule:evenodd;stroke-linecap:round;stroke-linejoin:round;stroke-miterlimit:1.5;"><g><rect x="46.583" y="195.448" width="137.585" height="41.495" style="fill:none;stroke:#000;stroke-width:6.25px;"/><path d="M105.664,143.8c-70.641,-25.84 -72.495,-139.498 -72.495,-139.498l164.414,0c-0,0 -1.854,113.658 -72.495,139.498l-19.424,0Z" style="fill:none;stroke:#000;stroke-width:6.25px;"/><path d="M197.583,26.124l26.331,0c0,0 8.792,66.04 -45.875,66.04" style="fill:none;stroke:#000;stroke-width:6.25px;"/><path d="M31.824,26.124l-26.331,0c-0,0 -8.792,66.04 45.875,66.04" style="fill:none;stroke:#000;stroke-width:6.25px;"/><path d="M124.016,143.8l-0,21.323c4.443,18.152 18.517,26.675 37.463,30.325l-92.206,-0c18.946,-3.65 33.02,-12.173 37.463,-30.325l0,-21.323" style="fill:none;stroke:#000;stroke-width:6.25px;"/><path d="M115.376,31.24l8.861,18.653l20.48,2.664l-15.003,14.192l3.795,20.3l-18.133,-9.883l-18.134,9.883l3.796,-20.3l-15.003,-14.192l20.48,-2.664l8.861,-18.653Z" style="fill:none;stroke:#000;stroke-width:6.25px;"/></g></svg>