<?xml version="1.0" encoding="UTF-8" standalone="no"?><!DOCTYPE svg PUBLIC "-//W3C//DTD SVG 1.1//EN" "http://www.w3.org/Graphics/SVG/1.1/DTD/svg11.dtd"><svg width="100%" height="100%" viewBox="0 0 292 271" version="1.1" xmlns="http://www.w3.org/2000/svg" xmlns:xlink="http://www.w3.org/1999/xlink" xml:space="preserve" xmlns:serif="http://www.serif.com/" style="fill-rule:evenodd;clip-rule:evenodd;stroke-linecap:round;stroke-linejoin:round;stroke-miterlimit:1.5;"><g><path d="M57.795,54.302c0,0 62.537,177.869 216.785,144.876" style="fill:none;stroke:#000;stroke-width:4.17px;"/><path d="M15.949,96.506c-2.318,2.531 -3.494,5.905 -3.251,9.329c0.244,3.424 1.885,6.598 4.538,8.776c35.382,29.039 151.061,123.976 151.061,123.976c-0,0 34.258,11.455 72.786,0.486c16.026,-4.563 26.016,-7.644 32.219,-9.686c5.496,-2.707 8.198,-9.017 6.364,-14.863c-1.903,-6.327 -4.306,-13.983 -5.985,-19.334c-1.291,-4.112 -4.608,-7.269 -8.779,-8.354c-15.373,-3.999 -51.847,-13.487 -51.847,-13.487c-25.995,-20.915 -44.757,-44.136 -51.983,-71.035c-0,-0 -11.774,-30.297 -34.473,0.18c-0,-0 -37.674,-5.771 -42.879,-49.578c-1.614,-13.585 -11.632,-15.672 -25.082,-2.223c-9.342,9.343 -30.586,32.526 -42.689,45.813Z" style="fill:none;stroke:#000;stroke-width:4.17px;"/><path d="M126.007,103.053c0,-0 7.195,54.855 85.73,69.971" style="fill:none;stroke:#000;stroke-width:4.17px;"/><path d="M126.007,103.053l2.911,7.989c17.395,2.371 37.588,-0.128 29.576,-13.349" style="fill:none;stroke:#000;stroke-width:4.17px;"/><path d="M20.307,93.236c120.601,91.622 149.037,159.483 257.015,117.504" style="fill:none;stroke:#000;stroke-width:4.17px;"/><path d="M44.835,66.327c0,-0 22.405,13.757 15.9,58.815" style="fill:none;stroke:#000;stroke-width:4.17px;"/><path d="M150.787,121.595l14.332,-4.66" style="fill:none;stroke:#000;stroke-width:4.17px;"/><path d="M156.301,132.643l14.333,-4.66" style="fill:none;stroke:#000;stroke-width:4.17px;"/><path d="M163.467,141.461l14.333,-4.661" style="fill:none;stroke:#000;stroke-width:4.17px;"/></g></svg>