<?xml version="1.0" encoding="UTF-8" standalone="no"?><!DOCTYPE svg PUBLIC "-//W3C//DTD SVG 1.1//EN" "http://www.w3.org/Graphics/SVG/1.1/DTD/svg11.dtd"><svg width="100%" height="100%" viewBox="0 0 175 192" version="1.1" xmlns="http://www.w3.org/2000/svg" xmlns:xlink="http://www.w3.org/1999/xlink" xml:space="preserve" xmlns:serif="http://www.serif.com/" style="fill-rule:evenodd;clip-rule:evenodd;stroke-linecap:round;stroke-linejoin:round;stroke-miterlimit:1.5;"><path d="M87.5,16.667c48.293,-0 87.5,39.207 87.5,87.5c0,48.292 -39.207,87.5 -87.5,87.5c-48.293,-0 -87.5,-39.208 -87.5,-87.5c-0,-48.293 39.207,-87.5 87.5,-87.5Zm-0,4.675c45.712,-0 82.825,37.112 82.825,82.825c-0,45.712 -37.113,82.825 -82.825,82.825c-45.712,-0 -82.825,-37.113 -82.825,-82.825c0,-45.713 37.113,-82.825 82.825,-82.825Z"/><circle cx="87.5" cy="109.456" r="11.396"/><path d="M87.5,109.456l0,-67.934" style="fill:none;stroke:#000;stroke-width:6.25px;"/><path d="M87.5,19.526l-0,-19.526" style="fill:none;stroke:#000;stroke-width:12.5px;stroke-linecap:butt;"/><path d="M168.47,43.947l-18.657,-18.657" style="fill:none;stroke:#000;stroke-width:12.5px;stroke-linecap:butt;"/><path d="M149.813,43.947l9.328,-9.329" style="fill:none;stroke:#000;stroke-width:6.25px;stroke-linecap:butt;"/></svg>