<?xml version="1.0" encoding="utf-8"?><svg xmlns="http://www.w3.org/2000/svg" xmlns:xlink="http://www.w3.org/1999/xlink"><symbol viewBox="0 0 NaN NaN" id="arrow-left" xmlns="http://www.w3.org/2000/svg"><path d="M247.35 35.7L211.65 0l-153 153 153 153 35.7-35.7L130.05 153z"/></symbol><symbol viewBox="0 0 NaN NaN" id="arrow-right" xmlns="http://www.w3.org/2000/svg"><path d="M58.65 267.75L175.95 153 58.65 35.7 94.35 0l153 153-153 153z"/></symbol><symbol viewBox="0 0 24 24" id="envelopes" xmlns="http://www.w3.org/2000/svg"><path d="M17 21.63H5a3 3 0 01-3-3v-8a1 1 0 00-2 0v8a5 5 0 005 5h12a1 1 0 000-2zm4-18H7a3 3 0 00-3 3v10a3 3 0 003 3h14a3 3 0 003-3v-10a3 3 0 00-3-3zm-.41 2l-5.88 5.88a1 1 0 01-1.42 0L7.41 5.63zm1.41 11a1 1 0 01-1 1H7a1 1 0 01-1-1V7l5.88 5.88a3 3 0 004.24 0L22 7z"/></symbol><symbol viewBox="0 0 24 24" id="facebook" xmlns="http://www.w3.org/2000/svg"><path d="M15.12 5.32H17V2.14A26.11 26.11 0 0014.26 2c-2.72 0-4.58 1.66-4.58 4.7v2.62H6.61v3.56h3.07V22h3.68v-9.12h3.06l.46-3.56h-3.52V7.05c0-1.05.28-1.73 1.76-1.73z"/></symbol><symbol viewBox="0 0 24 24" id="heartbeat" xmlns="http://www.w3.org/2000/svg"><path d="M21 10.41h-2.5a1 1 0 00-.71.3L16.55 12l-2.8-3.19a1 1 0 00-1.46 0l-1.7 1.7H9a1 1 0 000 2h2a1 1 0 00.71-.29L13 10.88l2.8 3.19a1 1 0 00.72.34 1 1 0 00.71-.29l1.7-1.71H21a1 1 0 000-2zm-7.39 5.3l-1.9 1.9a1 1 0 01-1.42 0L5.08 12.4a3.69 3.69 0 010-5.22 3.69 3.69 0 015.21 0 1 1 0 001.42 0 3.78 3.78 0 015.21 0 3.94 3.94 0 01.58.75 1 1 0 001.72-1 6 6 0 00-.88-1.13A5.68 5.68 0 0011 5.17a5.68 5.68 0 00-9 4.62 5.62 5.62 0 001.67 4L8.88 19a3 3 0 004.24 0L15 17.12a1 1 0 000-1.41 1 1 0 00-1.39 0z"/></symbol><symbol viewBox="0 0 24 24" id="instagram" xmlns="http://www.w3.org/2000/svg"><path d="M17.34 5.46a1.2 1.2 0 101.2 1.2 1.2 1.2 0 00-1.2-1.2zm4.6 2.42a7.59 7.59 0 00-.46-2.43 4.94 4.94 0 00-1.16-1.77 4.7 4.7 0 00-1.77-1.15 7.3 7.3 0 00-2.43-.47C15.06 2 14.72 2 12 2s-3.06 0-4.12.06a7.3 7.3 0 00-2.43.47 4.78 4.78 0 00-1.77 1.15 4.7 4.7 0 00-1.15 1.77 7.3 7.3 0 00-.47 2.43C2 8.94 2 9.28 2 12s0 3.06.06 4.12a7.3 7.3 0 00.47 2.43 4.7 4.7 0 001.15 1.77 4.78 4.78 0 001.77 1.15 7.3 7.3 0 002.43.47C8.94 22 9.28 22 12 22s3.06 0 4.12-.06a7.3 7.3 0 002.43-.47 4.7 4.7 0 001.77-1.15 4.85 4.85 0 001.16-1.77 7.59 7.59 0 00.46-2.43c0-1.06.06-1.4.06-4.12s0-3.06-.06-4.12zM20.14 16a5.61 5.61 0 01-.34 1.86 3.06 3.06 0 01-.75 1.15 3.19 3.19 0 01-1.15.75 5.61 5.61 0 01-1.86.34c-1 .05-1.37.06-4 .06s-3 0-4-.06a5.73 5.73 0 01-1.94-.3 3.27 3.27 0 01-1.1-.75 3 3 0 01-.74-1.15 5.54 5.54 0 01-.4-1.9c0-1-.06-1.37-.06-4s0-3 .06-4a5.54 5.54 0 01.35-1.9A3 3 0 015 5a3.14 3.14 0 011.1-.8A5.73 5.73 0 018 3.86c1 0 1.37-.06 4-.06s3 0 4 .06a5.61 5.61 0 011.86.34 3.06 3.06 0 011.19.8 3.06 3.06 0 01.75 1.1 5.61 5.61 0 01.34 1.9c.05 1 .06 1.37.06 4s-.01 3-.06 4zM12 6.87A5.13 5.13 0 1017.14 12 5.12 5.12 0 0012 6.87zm0 8.46A3.33 3.33 0 1115.33 12 3.33 3.33 0 0112 15.33z"/></symbol><symbol viewBox="0 0 512 512" id="pinterest" xmlns="http://www.w3.org/2000/svg"><path d="M236.3 335.8c-1.9 7.7-3.6 14.5-5.3 21.3-1.9 7.8-3.7 15.6-5.5 23.4-2.2 9.5-3.9 19.1-6.7 28.3-4 13.1-8 26.2-13.4 38.7-5 11.5-11.6 22.4-17.9 33.3-5.2 8.9-11.1 17.5-16.9 26.1-.9 1.3-3.4 2.6-4.5 2.2-1.4-.5-3-2.7-3.2-4.3-3.8-30.3-5.8-60.8-1.8-91.2 1.6-12.3 4.9-24.3 7.4-36.5 1.6-8 3.2-16.1 4.9-24.2 2.1-9.9 4.3-19.9 6.5-29.8 3.2-14.6 6.5-29.1 9.8-43.7 2.7-11.7 5.3-23.5 8.2-35.2 1.4-5.6-1.5-10.2-2.8-15.2-4.3-17.2-7-34.3-3.8-52.2 2.3-12.9 5.7-25.2 13-36.1 9.5-14.2 22.3-23.5 40.4-22.5 15.5.9 26.3 11 30.3 25.3 4.5 15.8 2.5 31.6-1.6 47.2-4.4 17-9.1 33.8-13.4 50.8-2.7 10.6-6.6 21.2-7.2 32-.9 16.1 5.4 30.2 19.5 39.3 11.2 7.2 23.1 8.6 36.3 5.4 17.5-4.3 29.6-15.2 39.8-29 12.1-16.3 18.9-34.8 24.2-54.3 6.5-24.2 9-48.6 8.5-73.5-.4-23-6.5-44.3-19.5-63.3-9.8-14.2-22.7-24.8-38.7-31.8-10.2-4.5-20.3-8.4-31.5-8.9-12.1-.5-24.3-2.6-36.2-1.4-35.9 3.9-65.6 19.7-88 48.5-8.9 11.5-16 24-20.7 37.5-7.2 20.8-10.4 42.4-8.3 64.5 1.5 15.5 6 30.4 16.2 42.4 7 8.2 5.7 16.2 3.3 25-1.3 4.6-2.5 9.2-3.5 13.9-1.7 8.4-6.4 12.7-16.1 8-19.4-9.4-31.7-24.9-40.3-44.1-12-26.9-14.1-55.3-11.3-83.9 3.3-32.4 15.8-61.7 35-88 13.9-19 31.2-34.4 51.4-46.5 15.8-9.5 32.6-16.2 50.4-20.8 23.1-6 46.5-7.8 70-5.9 17.6 1.4 34.6 5.6 51.1 12.4 28.5 11.8 51.8 29.9 70 54.6 10.8 14.7 19.1 30.8 24.5 48.4 3.2 10.4 5.9 20.8 6.2 31.7.4 12.3 1.8 24.6 1.1 36.7-.7 12.9-3.3 25.8-5.3 38.6-3.3 21.2-10.4 41.2-19.9 60.3-8.2 16.4-18.5 31.3-31.8 44.2-13.4 13-28.8 22.7-46.4 29.1-16.7 6.1-33.8 8.3-51.2 6.2-20.7-2.6-38.2-11.9-51.3-28.7-.9-1-2.3-2.4-4-4.3z"/></symbol><symbol viewBox="0 0 64 64" id="shoes" xmlns="http://www.w3.org/2000/svg"><path d="M45 31.74L37.37 31l-5.5-3.12-1-3.25-1.54-4.82-1.29-4a1 1 0 00-.95-.69H10a1 1 0 00-1 1v31.79a1 1 0 001 1h44a1 1 0 001-1V42.7a11 11 0 00-10-10.96zM28.51 24h-8.8v-2.86h7.9zm-2.2-6.87l.69 2.01h-8.29a1 1 0 00-1 1V25a1 1 0 001 1h10.44l.73 2.28-3.11 2.5A1 1 0 1028 32.3l3.12-2.51 1.34.77-2.71 2.18A1 1 0 1031 34.3l3.33-2.68 1.35.77-2.93 2.35A1 1 0 1034 36.3l3.65-2.93a1.23 1.23 0 00.23-.28l6.94.65A8.94 8.94 0 0153 42.07H11v-25zM53 46.91H11v-2.84h42z"/></symbol><symbol viewBox="0 0 24 24" id="stopwatch" xmlns="http://www.w3.org/2000/svg"><path d="M18.3 8.59l.91-.9a1 1 0 00-1.42-1.42l-.9.91a8 8 0 00-9.79 0l-.91-.92a1 1 0 00-1.42 1.43l.92.91A7.92 7.92 0 004 13.5a8 8 0 1014.3-4.91zM12 19.5a6 6 0 116-6 6 6 0 01-6 6zm-2-15h4a1 1 0 000-2h-4a1 1 0 000 2zm3 6a1 1 0 00-2 0v1.89a1.5 1.5 0 102 0z"/></symbol><symbol viewBox="0 0 24 24" id="timer" xmlns="http://www.w3.org/2000/svg"><path d="M15 1H9v2h6V1zm-4 13h2V8h-2v6zm8.03-6.61l1.42-1.42c-.43-.51-.9-.99-1.41-1.41l-1.42 1.42A8.962 8.962 0 0012 4c-4.97 0-9 4.03-9 9s4.02 9 9 9a8.994 8.994 0 007.03-14.61zM12 20c-3.87 0-7-3.13-7-7s3.13-7 7-7 7 3.13 7 7-3.13 7-7 7z"/></symbol><symbol viewBox="0 0 24 24" id="trophy" xmlns="http://www.w3.org/2000/svg"><path d="M21 4h-3V3a1 1 0 00-1-1H7a1 1 0 00-1 1v1H3a1 1 0 00-1 1v3a4 4 0 004 4h1.54A6 6 0 0011 13.91V16h-1a3 3 0 00-3 3v2a1 1 0 001 1h8a1 1 0 001-1v-2a3 3 0 00-3-3h-1v-2.09A6 6 0 0016.46 12H18a4 4 0 004-4V5a1 1 0 00-1-1zM6 10a2 2 0 01-2-2V6h2v2a6 6 0 00.35 2zm8 8a1 1 0 011 1v1H9v-1a1 1 0 011-1zm2-10a4 4 0 01-8 0V4h8zm4 0a2 2 0 01-2 2h-.35A6 6 0 0018 8V6h2z"/></symbol><symbol viewBox="0 0 24 24" id="truck" xmlns="http://www.w3.org/2000/svg"><path d="M1 12.5v5a1 1 0 001 1h1a3 3 0 006 0h6a3 3 0 006 0h1a1 1 0 001-1v-12a3 3 0 00-3-3h-9a3 3 0 00-3 3v2H6a3 3 0 00-2.4 1.2l-2.4 3.2a.61.61 0 00-.07.14l-.06.11a1 1 0 00-.07.35zm16 6a1 1 0 111 1 1 1 0 01-1-1zm-7-13a1 1 0 011-1h9a1 1 0 011 1v11h-.78a3 3 0 00-4.44 0H10zm-2 6H4l1.2-1.6a1 1 0 01.8-.4h2zm-3 7a1 1 0 111 1 1 1 0 01-1-1zm-2-5h5v2.78a3 3 0 00-4.22.22H3z"/></symbol></svg>