<?xml version="1.0" encoding="utf-8"?><svg xmlns="http://www.w3.org/2000/svg" xmlns:xlink="http://www.w3.org/1999/xlink"><symbol viewBox="0 0 150 180" fill-rule="evenodd" clip-rule="evenodd" stroke-linejoin="round" stroke-miterlimit="2" id="LogoPerson" xmlns="http://www.w3.org/2000/svg"><path d="M85.448 30.014l-13.443 1.642S31.353 33.345 40.084 87.91c8.325-1.134 12.155-2.353 12.155-2.353S41.286 45.979 72.573 45.979c7.991 0 .581 38.075.581 38.075l-4.787 22.166s-5.892 19.062-15.723 23.797c-13.312 3.254-9.056 1.994-17.74 8.748s-23.041 6.36-29.466 6.36l-5.304 26.95s11.267 1.242 16.36-16.06c10.336-2.65 60.824-14.739 75.022-51.671 0 0 16.69 10.417 33.502 8.016-10.676 16.754-1.356 22.605-3.849 41.861l-5.633 13.475 26.135 7.804s2.128-11.471-12.97-15.417c0 0-.685-24.972 11.369-46.062 2.965-13.128-10.073-15.871-39.2-25.279-.494-6.702.083-19.492 2.453-30.478 0 0 17.924 12.823 24.749 9.05 6.825-3.773 18.328-29.463 18.328-29.463l-10.361-4.63c-1.248 6.523-15.4 40.578-25.355 6.147-.757-2.618-10.646-5.318-8.987-9.615 0 0 14.657 1.556 5.844-20.507-6.002-15.027-26.468-3.805-20.803 10.765 3.536 9.096-1.29 10.003-1.29 10.003z"/></symbol><symbol viewBox="0 0 184 188" fill-rule="evenodd" clip-rule="evenodd" stroke-linecap="round" stroke-linejoin="round" stroke-miterlimit="1.5" id="hero--cart" xmlns="http://www.w3.org/2000/svg"><g stroke-width="6.25"><path d="M25.684 5.155l51.364 126.208m-58.82-92.511h20.023m57.935-8.116L56.751 46.657l15.921 39.434 39.435-15.921-15.921-39.434zm-9.469 89.986l-9.794-24.257 76.922-31.056 15.921 39.435-62.577 25.264"/><circle cx="84.429" cy="151.723" r="20.291"/><path d="M104.72 143.721l57.094-22.961"/><circle cx="84.429" cy="151.723" r="3.994"/></g></symbol><symbol viewBox="0 0 180 150" fill-rule="evenodd" clip-rule="evenodd" stroke-linecap="round" stroke-linejoin="round" stroke-miterlimit="1.5" id="hero--message" xmlns="http://www.w3.org/2000/svg"><g stroke-width="6.25"><path d="M141.485 3.471H5.808v105.501h28.355v34.325l30.024-34.325h77.298V3.471zM34.163 39.746h82.089M34.163 53.614h82.089M34.163 67.482h82.089"/><path d="M102.546 119.275v10.016h38.939l21.083 16.68-.289-16.68h13.386V73.384h-22.491"/></g></symbol><symbol viewBox="0 0 175 192" fill-rule="evenodd" clip-rule="evenodd" stroke-linecap="round" stroke-linejoin="round" stroke-miterlimit="1.5" id="hero--timer" xmlns="http://www.w3.org/2000/svg"><path d="M87.5 16.667c48.293 0 87.5 39.207 87.5 87.5 0 48.292-39.207 87.5-87.5 87.5S0 152.459 0 104.167c0-48.293 39.207-87.5 87.5-87.5zm0 4.675c45.712 0 82.825 37.112 82.825 82.825 0 45.712-37.113 82.825-82.825 82.825S4.675 149.879 4.675 104.167c0-45.713 37.113-82.825 82.825-82.825z"/><circle cx="87.5" cy="109.456" r="11.396"/><path d="M87.5 109.456V41.522M87.5 19.526V0m80.97 43.947L149.813 25.29M149.813 43.947l9.328-9.329"/></symbol><symbol viewBox="0 0 230 242" fill-rule="evenodd" clip-rule="evenodd" stroke-linecap="round" stroke-linejoin="round" stroke-miterlimit="1.5" id="opportunities--cup" xmlns="http://www.w3.org/2000/svg"><g stroke-width="6.25"><path d="M46.583 195.448h137.585v41.495H46.583zm59.081-51.648C35.023 117.96 33.169 4.302 33.169 4.302h164.414S195.729 117.96 125.088 143.8h-19.424z"/><path d="M197.583 26.124h26.331s8.792 66.04-45.875 66.04M31.824 26.124H5.493s-8.792 66.04 45.875 66.04m72.648 51.636v21.323c4.443 18.152 18.517 26.675 37.463 30.325H69.273c18.946-3.65 33.02-12.173 37.463-30.325V143.8m8.64-112.56l8.861 18.653 20.48 2.664-15.003 14.192 3.795 20.3-18.133-9.883-18.134 9.883 3.796-20.3-15.003-14.192 20.48-2.664 8.861-18.653z"/></g></symbol><symbol viewBox="0 0 275 234" fill-rule="evenodd" clip-rule="evenodd" stroke-linecap="round" stroke-linejoin="round" stroke-miterlimit="1.5" id="opportunities--hearth" xmlns="http://www.w3.org/2000/svg"><g stroke-width="6.25"><path d="M136.391 227.697C42.431 189.339 18.493 130.111 30.082 92.496c11.634-37.762 59.075-53.74 107.418-4.952l.566-.569c48.146-48.094 95.263-32.093 106.852 5.521 11.635 37.762-12.537 97.307-107.418 135.651l-1.109-.45z"/><path d="M6.622 137.446h89.687l8.394-132.659 32.799 189.675 28.564-162.368 2.041 133.635 24.627-24.627h75.644"/></g></symbol><symbol viewBox="0 0 292 271" fill-rule="evenodd" clip-rule="evenodd" stroke-linecap="round" stroke-linejoin="round" stroke-miterlimit="1.5" id="opportunities--shoe" xmlns="http://www.w3.org/2000/svg"><g stroke-width="4.17"><path d="M57.795 54.302s62.537 177.869 216.785 144.876M15.949 96.506a12.504 12.504 0 001.287 18.105l151.061 123.976s34.258 11.455 72.786.486c16.026-4.563 26.016-7.644 32.219-9.686a12.423 12.423 0 006.364-14.863c-1.903-6.327-4.306-13.983-5.985-19.334a12.5 12.5 0 00-8.779-8.354l-51.847-13.487c-25.995-20.915-44.757-44.136-51.983-71.035 0 0-11.774-30.297-34.473.18 0 0-37.674-5.771-42.879-49.578-1.614-13.585-11.632-15.672-25.082-2.223-9.342 9.343-30.586 32.526-42.689 45.813zm110.058 6.547s7.195 54.855 85.73 69.971"/><path d="M126.007 103.053l2.911 7.989c17.395 2.371 37.588-.128 29.576-13.349M20.307 93.236c120.601 91.622 149.037 159.483 257.015 117.504M44.835 66.327s22.405 13.757 15.9 58.815m90.052-3.547l14.332-4.66m-8.818 15.708l14.333-4.66m-7.167 13.478L177.8 136.8"/></g></symbol><symbol viewBox="0 0 24 24" id="socials--facebook" xmlns="http://www.w3.org/2000/svg"><path d="M15.12 5.32H17V2.14A26.11 26.11 0 0014.26 2c-2.72 0-4.58 1.66-4.58 4.7v2.62H6.61v3.56h3.07V22h3.68v-9.12h3.06l.46-3.56h-3.52V7.05c0-1.05.28-1.73 1.76-1.73z"/></symbol><symbol viewBox="0 0 24 24" id="socials--instagram" xmlns="http://www.w3.org/2000/svg"><path d="M17.34 5.46a1.2 1.2 0 101.2 1.2 1.2 1.2 0 00-1.2-1.2zm4.6 2.42a7.59 7.59 0 00-.46-2.43 4.94 4.94 0 00-1.16-1.77 4.7 4.7 0 00-1.77-1.15 7.3 7.3 0 00-2.43-.47C15.06 2 14.72 2 12 2s-3.06 0-4.12.06a7.3 7.3 0 00-2.43.47 4.78 4.78 0 00-1.77 1.15 4.7 4.7 0 00-1.15 1.77 7.3 7.3 0 00-.47 2.43C2 8.94 2 9.28 2 12s0 3.06.06 4.12a7.3 7.3 0 00.47 2.43 4.7 4.7 0 001.15 1.77 4.78 4.78 0 001.77 1.15 7.3 7.3 0 002.43.47C8.94 22 9.28 22 12 22s3.06 0 4.12-.06a7.3 7.3 0 002.43-.47 4.7 4.7 0 001.77-1.15 4.85 4.85 0 001.16-1.77 7.59 7.59 0 00.46-2.43c0-1.06.06-1.4.06-4.12s0-3.06-.06-4.12zM20.14 16a5.61 5.61 0 01-.34 1.86 3.06 3.06 0 01-.75 1.15 3.19 3.19 0 01-1.15.75 5.61 5.61 0 01-1.86.34c-1 .05-1.37.06-4 .06s-3 0-4-.06a5.73 5.73 0 01-1.94-.3 3.27 3.27 0 01-1.1-.75 3 3 0 01-.74-1.15 5.54 5.54 0 01-.4-1.9c0-1-.06-1.37-.06-4s0-3 .06-4a5.54 5.54 0 01.35-1.9A3 3 0 015 5a3.14 3.14 0 011.1-.8A5.73 5.73 0 018 3.86c1 0 1.37-.06 4-.06s3 0 4 .06a5.61 5.61 0 011.86.34 3.06 3.06 0 011.19.8 3.06 3.06 0 01.75 1.1 5.61 5.61 0 01.34 1.9c.05 1 .06 1.37.06 4s-.01 3-.06 4zM12 6.87A5.13 5.13 0 1017.14 12 5.12 5.12 0 0012 6.87zm0 8.46A3.33 3.33 0 1115.33 12 3.33 3.33 0 0112 15.33z"/></symbol><symbol viewBox="0 0 16 16" id="socials--pinterest" xmlns="http://www.w3.org/2000/svg"><path d="M8.717 0C4.332 0 2 2.81 2 5.874c0 1.421.794 3.193 2.065 3.755.193.087.298.05.341-.129.038-.136.205-.791.286-1.1a.283.283 0 00-.068-.278c-.422-.488-.757-1.377-.757-2.211 0-2.137 1.699-4.212 4.59-4.212 2.5 0 4.249 1.624 4.249 3.947 0 2.625-1.389 4.441-3.194 4.441-.999 0-1.743-.784-1.507-1.754.285-1.155.844-2.397.844-3.23 0-.747-.422-1.365-1.284-1.365-1.017 0-1.842 1.007-1.842 2.359 0 .859.304 1.439.304 1.439l-1.193 4.823c-.316 1.285.043 3.366.074 3.545.019.099.13.13.192.049.099-.13 1.315-1.865 1.656-3.119.124-.457.633-2.31.633-2.31.335.605 1.302 1.112 2.332 1.112 3.064 0 5.278-2.693 5.278-6.035C14.988 2.397 12.246 0 8.717 0"/></symbol></svg>