<?xml version="1.0" encoding="UTF-8" standalone="no"?><!DOCTYPE svg PUBLIC "-//W3C//DTD SVG 1.1//EN" "http://www.w3.org/Graphics/SVG/1.1/DTD/svg11.dtd"><svg width="100%" height="100%" viewBox="0 0 150 180" version="1.1" xmlns="http://www.w3.org/2000/svg" xmlns:xlink="http://www.w3.org/1999/xlink" xml:space="preserve" xmlns:serif="http://www.serif.com/" style="fill-rule:evenodd;clip-rule:evenodd;stroke-linejoin:round;stroke-miterlimit:2;"><path d="M85.448,30.014l-13.443,1.642c0,-0 -40.652,1.689 -31.921,56.254c8.325,-1.134 12.155,-2.353 12.155,-2.353c0,-0 -10.953,-39.578 20.334,-39.578c7.991,0 0.581,38.075 0.581,38.075l-4.787,22.166c0,-0 -5.892,19.062 -15.723,23.797c-13.312,3.254 -9.056,1.994 -17.74,8.748c-8.684,6.754 -23.041,6.36 -29.466,6.36l-5.304,26.95c0,-0 11.267,1.242 16.36,-16.06c10.336,-2.65 60.824,-14.739 75.022,-51.671c0,0 16.69,10.417 33.502,8.016c-10.676,16.754 -1.356,22.605 -3.849,41.861l-5.633,13.475l26.135,7.804c0,-0 2.128,-11.471 -12.97,-15.417c0,0 -0.685,-24.972 11.369,-46.062c2.965,-13.128 -10.073,-15.871 -39.2,-25.279c-0.494,-6.702 0.083,-19.492 2.453,-30.478c-0,0 17.924,12.823 24.749,9.05c6.825,-3.773 18.328,-29.463 18.328,-29.463l-10.361,-4.63c-1.248,6.523 -15.4,40.578 -25.355,6.147c-0.757,-2.618 -10.646,-5.318 -8.987,-9.615c0,-0 14.657,1.556 5.844,-20.507c-6.002,-15.027 -26.468,-3.805 -20.803,10.765c3.536,9.096 -1.29,10.003 -1.29,10.003Z"/></svg>